<?xml version="1.0" encoding="iso-8859-1"?>
<!-- Generator: Adobe Illustrator 19.0.0, SVG Export Plug-In . SVG Version: 6.00 Build 0)  -->
<svg version="1.1" id="Capa_1" xmlns="http://www.w3.org/2000/svg" xmlns:xlink="http://www.w3.org/1999/xlink" x="0px" y="0px"
	 viewBox="0 0 512 512" style="enable-background:new 0 0 512 512;" xml:space="preserve">
<g>
	<path style="fill:#F0F0FB;" d="M30.776,10.018h323.177v326.281l-34.652-34.653l-58.465-20.053l20.054,58.464l0,0l0,0l73.064,73.065
		v86.136H30.776V10.018L30.776,10.018z M83.683,112.298v152.101h217.364V112.298H83.683z"/>
	<path style="fill:#FF8346;" d="M83.683,112.298h217.364v101.21l-35.514-29.386c-6.807-5.633-17.946-5.633-24.753,0l-54.192,44.843
		l-30.281-25.058c-6.807-5.633-17.946-5.633-24.753,0L83.683,243.52V112.298L83.683,112.298z M195.811,137.637
		c-11.185,0-20.256,9.071-20.256,20.257c0,11.184,9.071,20.257,20.256,20.257c11.186,0,20.256-9.073,20.256-20.257
		C216.066,146.708,206.995,137.637,195.811,137.637z"/>
	<path style="fill:#66FFCC;" d="M301.047,213.508v50.891H83.683V243.52l47.872-39.613c6.807-5.633,17.946-5.633,24.753,0
		l30.281,25.058l54.192-44.843c6.807-5.633,17.946-5.633,24.753,0L301.047,213.508z"/>
	<g>
		<path style="fill:#FFCE34;" d="M195.811,137.637c11.186,0,20.256,9.071,20.256,20.257c0,11.184-9.071,20.257-20.256,20.257
			c-11.185,0-20.256-9.073-20.256-20.257C175.554,146.708,184.626,137.637,195.811,137.637z"/>
		<path style="fill:#FFCE34;" d="M481.225,463.57l-38.412,38.412l0,0L481.225,463.57L481.225,463.57L481.225,463.57z
			 M401.621,460.791L280.889,340.057l38.412-38.412l129.086,129.087l-8.353-8.355L401.621,460.791z"/>
	</g>
	<polygon style="fill:#3C9FD7;" points="260.836,281.593 319.301,301.646 280.889,340.057 	"/>
	
		<rect x="414.259" y="433.051" transform="matrix(-0.7071 0.7071 -0.7071 -0.7071 1080.3624 476.8535)" style="fill:#FD4A4A;" width="54.325" height="58.252"/>
</g>
<path d="M488.309,456.487L488.309,456.487c-0.001-0.001-41.191-41.191-41.192-41.192
	C447.116,415.293,488.31,456.488,488.309,456.487L363.971,332.149V10.018C363.971,4.485,359.486,0,353.953,0H30.776
	c-5.533,0-10.018,4.485-10.018,10.018v489.241c0,5.532,4.485,10.018,10.018,10.018h323.177c5.533,0,10.018-4.486,10.018-10.018
	v-61.951l71.758,71.759c1.956,1.956,4.52,2.934,7.084,2.934c2.564,0,5.128-0.979,7.084-2.934l38.412-38.412
	c1.878-1.879,2.934-4.427,2.934-7.084C491.242,460.914,490.187,458.366,488.309,456.487z M295.056,340.057l24.245-24.244
	l106.565,106.565l-24.245,24.244L295.056,340.057z M285.156,321.623l-8.201-23.91l23.91,8.201L285.156,321.623z M343.935,489.241
	H40.794V20.035h303.141V35.16h-38.889c-5.533,0-10.018,4.486-10.018,10.018s4.485,10.018,10.018,10.018h38.889v256.919
	l-17.551-17.552c-0.052-0.053-0.11-0.098-0.164-0.148c-0.143-0.138-0.289-0.271-0.442-0.401c-0.099-0.084-0.199-0.164-0.301-0.244
	c-0.154-0.12-0.312-0.237-0.474-0.351c-0.113-0.078-0.227-0.152-0.343-0.226c-0.156-0.099-0.316-0.194-0.479-0.286
	c-0.134-0.075-0.271-0.146-0.41-0.214c-0.15-0.075-0.303-0.148-0.459-0.217c-0.161-0.069-0.324-0.133-0.488-0.194
	c-0.093-0.035-0.181-0.078-0.275-0.11l-51.762-17.754h30.258c5.533,0,10.018-4.486,10.018-10.018l0,0c0-0.003,0,0.003,0,0v-152.1
	c0-5.532-4.485-10.018-10.018-10.018H83.683c-5.533,0-10.018,4.486-10.018,10.018v152.101c0,0.005,0-0.004,0,0l0,0
	c0,5.532,4.485,10.018,10.018,10.018h170.176c-0.034,0.033-0.073,0.059-0.107,0.093c-2.705,2.705-3.633,6.715-2.392,10.333
	l20.053,58.464c0.029,0.083,0.064,0.162,0.095,0.244c0.052,0.14,0.103,0.279,0.161,0.416c0.07,0.165,0.147,0.325,0.225,0.484
	c0.051,0.104,0.097,0.21,0.151,0.314c0.139,0.263,0.291,0.517,0.451,0.763c0.037,0.056,0.078,0.109,0.115,0.164
	c0.141,0.208,0.289,0.41,0.444,0.605c0.047,0.059,0.095,0.116,0.144,0.174c0.17,0.204,0.348,0.401,0.532,0.589
	c0.026,0.026,0.047,0.055,0.073,0.081l0.129,0.129c0.003,0.003,0.005,0.006,0.008,0.009l69.993,69.993L343.935,489.241
	L343.935,489.241z M291.029,192.217l-19.11-15.813c-10.522-8.707-27.005-8.708-37.526,0l-47.804,39.558l-23.895-19.773
	c-10.522-8.705-27.006-8.708-37.525,0L93.7,222.228v-99.912h197.328L291.029,192.217L291.029,192.217z M93.7,248.233l44.24-36.609
	c3.079-2.548,8.902-2.548,11.979,0l30.281,25.058c3.707,3.067,9.067,3.067,12.774,0l54.192-44.843c3.078-2.548,8.901-2.548,11.979,0
	l31.883,26.384v36.158H93.7V248.233z M442.813,487.814l-27.024-27.025l24.245-24.244l27.025,27.025L442.813,487.814z"/>
<path d="M84.159,313.992h-0.476c-5.533,0-10.018,4.485-10.018,10.018c0,5.532,4.485,10.018,10.018,10.018h0.476
	c5.533,0,10.018-4.486,10.018-10.018C94.176,318.477,89.691,313.992,84.159,313.992z"/>
<path d="M113.295,334.028h59.708c5.533,0,10.018-4.486,10.018-10.018c0-5.533-4.485-10.018-10.018-10.018h-59.708
	c-5.533,0-10.018,4.485-10.018,10.018C103.277,329.542,107.762,334.028,113.295,334.028z"/>
<path d="M232.712,354.063H113.295c-5.533,0-10.018,4.485-10.018,10.018c0,5.532,4.485,10.018,10.018,10.018h119.417
	c5.533,0,10.018-4.486,10.018-10.018C242.73,358.548,238.245,354.063,232.712,354.063z"/>
<path d="M84.159,354.063h-0.476c-5.533,0-10.018,4.485-10.018,10.018c0,5.532,4.485,10.018,10.018,10.018h0.476
	c5.533,0,10.018-4.486,10.018-10.018C94.176,358.548,89.691,354.063,84.159,354.063z"/>
<path d="M232.712,394.134H113.295c-5.533,0-10.018,4.485-10.018,10.018c0,5.532,4.485,10.018,10.018,10.018h119.417
	c5.533,0,10.018-4.486,10.018-10.018C242.73,398.619,238.245,394.134,232.712,394.134z"/>
<path d="M84.159,394.134h-0.476c-5.533,0-10.018,4.485-10.018,10.018c0,5.532,4.485,10.018,10.018,10.018h0.476
	c5.533,0,10.018-4.486,10.018-10.018C94.176,398.619,89.691,394.134,84.159,394.134z"/>
<path d="M275.434,55.195h0.476c5.533,0,10.018-4.486,10.018-10.018S281.443,35.16,275.91,35.16h-0.476
	c-5.533,0-10.018,4.486-10.018,10.018S269.902,55.195,275.434,55.195z"/>
<path d="M195.811,188.166c16.693,0,30.273-13.58,30.273-30.272c0-16.693-13.581-30.274-30.273-30.274
	c-16.693,0-30.273,13.581-30.273,30.274C165.537,174.586,179.118,188.166,195.811,188.166z M195.811,147.655
	c5.645,0,10.238,4.593,10.238,10.239c0,5.645-4.593,10.237-10.238,10.237c-5.645,0-10.238-4.592-10.238-10.237
	C185.573,152.248,190.166,147.655,195.811,147.655z"/>
<g>
</g>
<g>
</g>
<g>
</g>
<g>
</g>
<g>
</g>
<g>
</g>
<g>
</g>
<g>
</g>
<g>
</g>
<g>
</g>
<g>
</g>
<g>
</g>
<g>
</g>
<g>
</g>
<g>
</g>
</svg>
