<?xml version="1.0" encoding="iso-8859-1"?>
<!-- Generator: Adobe Illustrator 19.0.0, SVG Export Plug-In . SVG Version: 6.00 Build 0)  -->
<svg version="1.1" id="Capa_1" xmlns="http://www.w3.org/2000/svg" xmlns:xlink="http://www.w3.org/1999/xlink" x="0px" y="0px"
	 viewBox="0 0 512 512" style="enable-background:new 0 0 512 512;" xml:space="preserve">
<g>
	<g>
		<g>
			<rect x="187.733" y="413.525" style="fill:#283593;" width="136.533" height="77.483"/>
			<path style="fill:#283593;" d="M42.667,85.333h426.667c18.851,0,34.133,15.282,34.133,34.133v281.6
				c0,18.851-15.282,34.133-34.133,34.133H42.667c-18.851,0-34.133-15.282-34.133-34.133v-281.6
				C8.533,100.615,23.815,85.333,42.667,85.333z"/>
			<path style="fill:#283593;" d="M128,469.333h256c4.713,0,8.533,3.82,8.533,8.533v17.067c0,4.713-3.82,8.533-8.533,8.533H128
				c-4.713,0-8.533-3.82-8.533-8.533v-17.067C119.467,473.154,123.287,469.333,128,469.333z"/>
		</g>
		<g>
			<polygon style="fill:#3F51B5;" points="298.667,413.525 298.667,491.008 162.133,491.008 162.133,469.333 187.733,469.333 
				187.733,435.2 162.133,435.2 162.133,413.525 			"/>
			<path style="fill:#3F51B5;" d="M42.667,85.333h401.067c18.851,0,34.133,15.282,34.133,34.133v281.6
				c0,18.851-15.282,34.133-34.133,34.133H42.667c-18.851,0-34.133-15.282-34.133-34.133v-281.6
				C8.533,100.615,23.815,85.333,42.667,85.333z"/>
			<path style="fill:#3F51B5;" d="M128,469.333h230.4c4.713,0,8.533,3.82,8.533,8.533v17.067c0,4.713-3.82,8.533-8.533,8.533H128
				c-4.713,0-8.533-3.82-8.533-8.533v-17.067C119.467,473.154,123.287,469.333,128,469.333z"/>
		</g>
		<path style="fill:#607D8B;" d="M503.467,366.933V119.467c0.002-9.053-3.593-17.737-9.995-24.139
			c-6.402-6.402-15.085-9.997-24.139-9.995H42.667c-9.053-0.002-17.737,3.593-24.139,9.995c-6.402,6.402-9.997,15.085-9.995,24.139
			l0,247.467H503.467z"/>
		<path style="fill:#CFD8DC;" d="M477.867,366.933V119.467c0.48-18.361-14.007-33.638-32.368-34.133H40.901
			c-18.36,0.495-32.847,15.773-32.368,34.133v247.467H477.867z"/>
		<path style="fill:#4CAF50;" d="M236.8,170.667c-19.248,26.786-50.215,42.667-83.2,42.667s-63.952-15.881-83.2-42.667H236.8z"/>
		<path style="fill:#FFEB3A;" d="M256,110.933c0.062,21.438-6.659,42.346-19.2,59.733H70.4
			c-25.832-35.982-25.603-84.492,0.566-120.229s72.348-50.599,114.449-36.834S255.996,66.639,256,110.933z"/>
		<g>
			<circle style="fill:#CFD8DC;" cx="153.6" cy="76.8" r="34.133"/>
			<path style="fill:#CFD8DC;" d="M153.6,110.933c28.277,0,51.2,22.923,51.2,51.2v8.533H102.4v-8.533
				C102.4,133.856,125.323,110.933,153.6,110.933z"/>
		</g>
		<path style="fill:#02A9F4;" d="M330.069,152.747l-37.291,48.555l-0.597,0.512c-1.321-1.546-2.047-3.513-2.048-5.547V128
			c-0.016-2.455,1.045-4.794,2.901-6.4l0.512,0.683L330.069,152.747z"/>
		<path style="fill:#00BCD4;" d="M390.485,201.728v0.085c-1.642,1.868-3.998,2.954-6.485,2.987h-85.333
			c-2.487-0.033-4.844-1.118-6.485-2.987l0.597-0.512l37.291-48.555l11.264,9.387l11.264-9.387l37.291,48.555L390.485,201.728z"/>
		<path style="fill:#02A9F4;" d="M392.533,128v68.267c-0.001,2.008-0.729,3.948-2.048,5.461l-0.597-0.427l-37.291-48.555
			l36.523-30.464l0.597-0.597C391.516,123.291,392.541,125.589,392.533,128z"/>
		<path style="fill:#00BCD4;" d="M389.717,121.685l-0.597,0.597l-36.523,30.464l-11.264,9.387l-11.264-9.387l-36.523-30.464
			l-0.512-0.683c1.549-1.383,3.555-2.143,5.632-2.133H384c2.077-0.01,4.083,0.75,5.632,2.133L389.717,121.685z"/>
		<circle style="fill:#02A9F4;" cx="341.333" cy="290.133" r="51.2"/>
	</g>
	<g>
		<path d="M469.333,76.8H259.105C244.322,31.022,201.706,0,153.6,0S62.878,31.022,48.095,76.8h-5.429
			C19.114,76.828,0.028,95.914,0,119.467v281.6c0.028,23.553,19.114,42.639,42.667,42.667H179.2V460.8h-59.733
			c-2.263-0.001-4.434,0.898-6.035,2.499c-1.6,1.6-2.499,3.771-2.499,6.035v34.133c-0.001,2.263,0.898,4.434,2.499,6.035
			c1.6,1.6,3.771,2.499,6.035,2.499h273.067c2.263,0.001,4.434-0.898,6.035-2.499c1.6-1.6,2.499-3.771,2.499-6.035v-34.133
			c0.001-2.263-0.898-4.434-2.499-6.035c-1.6-1.6-3.771-2.499-6.035-2.499H332.8v-17.067h136.533
			c23.553-0.028,42.639-19.114,42.667-42.667v-281.6C511.972,95.914,492.886,76.828,469.333,76.8z M153.6,17.067
			c34.449-0.044,66.146,18.808,82.552,49.099c16.406,30.291,14.878,67.14-3.981,95.968h-18.838
			c-0.027-22.291-12.458-42.714-32.245-52.977c13.708-11.546,18.738-30.428,12.593-47.264
			c-6.146-16.836-22.158-28.036-40.081-28.036s-33.935,11.201-40.081,28.036c-6.146,16.836-1.115,35.718,12.593,47.264
			c-19.787,10.263-32.218,30.686-32.245,52.977H75.029c-18.859-28.828-20.387-65.677-3.981-95.968S119.152,17.022,153.6,17.067z
			 M128,76.8c0-14.138,11.462-25.6,25.6-25.6c14.138,0,25.6,11.462,25.6,25.6s-11.462,25.6-25.6,25.6
			C139.468,102.385,128.015,90.932,128,76.8z M102.4,179.2h115.426c-36.015,34.133-92.438,34.133-128.452,0H102.4z M110.933,162.133
			c0-23.564,19.103-42.667,42.667-42.667c23.564,0,42.667,19.103,42.667,42.667H110.933z M42.667,93.867h1.453
			c-4.739,28.619,2.206,57.943,19.278,81.397c0.332,0.572,0.729,1.103,1.184,1.583c20.828,28.306,53.876,45.02,89.019,45.02
			s68.191-16.714,89.019-45.02c0.455-0.48,0.853-1.011,1.184-1.583c17.072-23.454,24.017-52.778,19.278-81.397h206.253
			c14.132,0.015,25.585,11.468,25.6,25.6V358.4H17.067V119.467C17.082,105.335,28.535,93.882,42.667,93.867z M384,494.933H128
			v-17.067h256V494.933z M315.733,460.8H196.267v-17.067h119.467V460.8z M469.333,426.667H42.667
			c-14.132-0.015-25.585-11.468-25.6-25.6v-25.6h477.867v25.6C494.918,415.199,483.465,426.651,469.333,426.667z"/>
		<path d="M76.8,256h153.6c4.713,0,8.533-3.821,8.533-8.533s-3.821-8.533-8.533-8.533H76.8c-4.713,0-8.533,3.82-8.533,8.533
			S72.087,256,76.8,256z"/>
		<path d="M76.8,290.133h153.6c4.713,0,8.533-3.82,8.533-8.533s-3.821-8.533-8.533-8.533H76.8c-4.713,0-8.533,3.821-8.533,8.533
			S72.087,290.133,76.8,290.133z"/>
		<path d="M76.8,324.267h153.6c4.713,0,8.533-3.82,8.533-8.533s-3.821-8.533-8.533-8.533H76.8c-4.713,0-8.533,3.82-8.533,8.533
			S72.087,324.267,76.8,324.267z"/>
		<path d="M298.667,213.333H384c9.421-0.011,17.056-7.645,17.067-17.067V128c-0.011-9.421-7.645-17.056-17.067-17.067h-85.333
			c-9.421,0.011-17.056,7.645-17.067,17.067v68.267C281.611,205.688,289.245,213.323,298.667,213.333z M335.871,168.692
			c3.166,2.633,7.759,2.633,10.925,0l4.439-3.703l24.022,31.279h-67.848l24.022-31.278L335.871,168.692z M384.009,179.641
			l-19.658-25.596l19.651-16.394L384.009,179.641z M341.333,151.025L313.733,128h55.2L341.333,151.025z M318.316,154.045
			l-19.649,25.583v-41.976L318.316,154.045z"/>
		<path d="M341.333,349.867c32.99,0,59.733-26.744,59.733-59.733S374.323,230.4,341.333,230.4S281.6,257.144,281.6,290.133
			C281.638,323.107,308.359,349.828,341.333,349.867z M299.529,298.667h16.448c0.385,9.651,1.926,19.222,4.59,28.506
			C309.752,321.172,302.075,310.77,299.529,298.667z M349.618,281.6h-16.57c-0.088-11.639,2.762-23.113,8.285-33.358
			C346.856,258.487,349.706,269.961,349.618,281.6L349.618,281.6z M349.618,298.667c0.088,11.639-2.762,23.113-8.285,33.358
			c-5.523-10.246-8.372-21.719-8.285-33.358H349.618z M362.099,327.172c2.664-9.284,4.205-18.854,4.59-28.506h16.448
			C380.592,310.77,372.915,321.172,362.099,327.172z M383.138,281.6H366.69c-0.385-9.651-1.926-19.222-4.59-28.506
			C372.915,259.095,380.592,269.496,383.138,281.6z M320.567,253.094c-2.664,9.284-4.205,18.854-4.59,28.506h-16.448
			C302.075,269.496,309.752,259.095,320.567,253.094z"/>
		<path d="M426.667,170.667h42.667c4.713,0,8.533-3.821,8.533-8.533c0-4.713-3.82-8.533-8.533-8.533h-42.667
			c-4.713,0-8.533,3.821-8.533,8.533C418.133,166.846,421.954,170.667,426.667,170.667z"/>
		<path d="M426.667,204.8h42.667c4.713,0,8.533-3.82,8.533-8.533s-3.82-8.533-8.533-8.533h-42.667c-4.713,0-8.533,3.821-8.533,8.533
			S421.954,204.8,426.667,204.8z"/>
		<path d="M426.667,307.2h42.667c4.713,0,8.533-3.821,8.533-8.533s-3.82-8.533-8.533-8.533h-42.667c-4.713,0-8.533,3.82-8.533,8.533
			S421.954,307.2,426.667,307.2z"/>
		<path d="M426.667,341.333h42.667c4.713,0,8.533-3.821,8.533-8.533c0-4.713-3.82-8.533-8.533-8.533h-42.667
			c-4.713,0-8.533,3.821-8.533,8.533C418.133,337.513,421.954,341.333,426.667,341.333z"/>
	</g>
</g>
<g>
</g>
<g>
</g>
<g>
</g>
<g>
</g>
<g>
</g>
<g>
</g>
<g>
</g>
<g>
</g>
<g>
</g>
<g>
</g>
<g>
</g>
<g>
</g>
<g>
</g>
<g>
</g>
<g>
</g>
</svg>
