<?xml version="1.0" encoding="iso-8859-1"?>
<!-- Generator: Adobe Illustrator 19.0.0, SVG Export Plug-In . SVG Version: 6.00 Build 0)  -->
<svg version="1.1" id="Layer_1" xmlns="http://www.w3.org/2000/svg" xmlns:xlink="http://www.w3.org/1999/xlink" x="0px" y="0px"
	 viewBox="0 0 511.999 511.999" style="enable-background:new 0 0 511.999 511.999;" xml:space="preserve">
<rect x="8.844" y="38" style="fill:#434A54;" width="487.16" height="302"/>
<polygon style="fill:#CCD1D9;" points="312.844,394.016 202.156,394.016 179.5,472.688 332.844,472.688 "/>
<rect x="8.844" y="341.34" style="fill:#E6E9ED;" width="494.31" height="43.34"/>
<path d="M501.344,32H10.656C4.781,32,0,36.781,0,42.656V384c0,5.891,4.781,10.656,10.656,10.656h177.031l-12.766,64h-4.266
	c-5.875,0-10.656,4.781-10.656,10.688c0,5.875,4.781,10.656,10.656,10.656h170.688c5.875,0,10.656-4.781,10.656-10.656
	c0-5.906-4.781-10.688-10.656-10.688h-4.281l-12.781-64h177.062c5.875,0,10.656-4.766,10.656-10.656V42.656
	C512,36.781,507.219,32,501.344,32z M196.688,458.656l12.75-63.906l93.094-0.031l12.781,63.938L196.688,458.656L196.688,458.656z
	 M490.656,53.344v277.312H21.344V53.344H490.656z M256,373.344H21.344V352H256h234.656v21.344H256z"/>
<path d="M266.656,362.656c0-5.875-4.766-10.656-10.656-10.656s-10.656,4.781-10.656,10.656c0,5.906,4.766,10.688,10.656,10.688
	C261.89,373.344,266.656,368.562,266.656,362.656z"/>
<path style="fill:#FC6E51;" d="M53.344,96h319.969c0,0,0.016,0,0.031,0C379.219,96,384,91.219,384,85.344
	c0-5.906-4.781-10.688-10.656-10.688l0,0h-320c-5.906,0-10.688,4.781-10.688,10.688C42.656,91.219,47.438,96,53.344,96z"/>
<path style="fill:#AC92EB;" d="M53.344,138.656h170.641c0.016,0,0.016,0,0.016,0c5.891,0,10.656-4.766,10.656-10.656
	s-4.766-10.656-10.656-10.656l0,0H53.344c-5.906,0-10.688,4.766-10.688,10.656S47.438,138.656,53.344,138.656z"/>
<path style="fill:#48CFAD;" d="M53.344,181.344h234.641c0.016,0,0.016,0,0.016,0c5.891,0,10.656-4.781,10.656-10.672
	S293.891,160,288,160l0,0H53.344c-5.906,0-10.688,4.781-10.688,10.656C42.656,176.562,47.438,181.344,53.344,181.344z"/>
<path style="fill:#5D9CEC;" d="M53.344,224h149.312l0,0c5.906,0,10.688-4.781,10.688-10.656c0-5.906-4.781-10.672-10.688-10.672l0,0
	l-149.312-0.016c-5.906,0-10.688,4.781-10.688,10.688C42.656,219.219,47.438,224,53.344,224z"/>
<path style="fill:#FFCE54;" d="M53.344,266.656h277.312v0.016c5.906,0,10.688-4.781,10.688-10.672s-4.781-10.656-10.688-10.656l0,0
	H53.344c-5.906,0-10.688,4.766-10.688,10.656C42.656,261.89,47.438,266.656,53.344,266.656z"/>
<path style="fill:#ED5564;" d="M53.344,309.344L53.344,309.344h85.312l0,0c5.906,0,10.688-4.781,10.688-10.672
	S144.562,288,138.656,288l0,0H53.344l0,0l0,0c-5.906,0-10.688,4.781-10.688,10.656C42.656,304.562,47.438,309.344,53.344,309.344z"
	/>
<g>
</g>
<g>
</g>
<g>
</g>
<g>
</g>
<g>
</g>
<g>
</g>
<g>
</g>
<g>
</g>
<g>
</g>
<g>
</g>
<g>
</g>
<g>
</g>
<g>
</g>
<g>
</g>
<g>
</g>
</svg>
