<?xml version="1.0" encoding="iso-8859-1"?>
<!-- Generator: Adobe Illustrator 19.0.0, SVG Export Plug-In . SVG Version: 6.00 Build 0)  -->
<svg version="1.1" id="Capa_1" xmlns="http://www.w3.org/2000/svg" xmlns:xlink="http://www.w3.org/1999/xlink" x="0px" y="0px"
	 viewBox="0 0 512 512" style="enable-background:new 0 0 512 512;" xml:space="preserve">
<g>
	<g transform="translate(1 1)">
		<path style="fill:#CFD8DC;" d="M502.467,33.133v460.8c0.196,4.483-3.253,8.289-7.733,8.533H255V33.133H502.467z"/>
		<path style="fill:#F5F5F5;" d="M476.867,33.133v460.8c0.381,4.253-2.693,8.036-6.933,8.533H255V33.133H476.867z"/>
		<rect x="7.533" y="144.067" style="fill:#607D8B;" width="247.467" height="332.8"/>
		<path style="fill:#00BCD4;" d="M255,451.267v51.2H16.067c-4.707-0.014-8.519-3.826-8.533-8.533v-42.667H255z"/>
		<rect x="7.533" y="41.667" style="fill:#4CAF50;" width="247.467" height="128"/>
		<path style="fill:#00838F;" d="M502.467,16.067v42.667H7.533V16.067c0.014-4.707,3.826-8.519,8.533-8.533h477.867
			C498.64,7.547,502.453,11.36,502.467,16.067z"/>
		<path style="fill:#00BCD4;" d="M476.867,16.067l0.002,42.667H7.531l0.002-42.667c-0.105-4.584,3.508-8.395,8.092-8.533h453.149
			C473.358,7.672,476.972,11.482,476.867,16.067z"/>
		<path style="fill:#FFEB3A;" d="M50.2,203.8h162.133c4.713,0,8.533,3.82,8.533,8.533V229.4c0,4.713-3.821,8.533-8.533,8.533H50.2
			c-4.713,0-8.533-3.821-8.533-8.533v-17.067C41.667,207.621,45.487,203.8,50.2,203.8z"/>
		<path style="fill:#FF5722;" d="M50.2,272.067h25.6c4.713,0,8.533,3.82,8.533,8.533v25.6c0,4.713-3.82,8.533-8.533,8.533H50.2
			c-4.713,0-8.533-3.82-8.533-8.533v-25.6C41.667,275.887,45.487,272.067,50.2,272.067z"/>
		<path style="fill:#FFEB3A;" d="M118.467,272.067h25.6c4.713,0,8.533,3.82,8.533,8.533v25.6c0,4.713-3.821,8.533-8.533,8.533h-25.6
			c-4.713,0-8.533-3.82-8.533-8.533v-25.6C109.933,275.887,113.754,272.067,118.467,272.067z"/>
		<path style="fill:#FF5722;" d="M186.733,272.067h25.6c4.713,0,8.533,3.82,8.533,8.533v25.6c0,4.713-3.821,8.533-8.533,8.533h-25.6
			c-4.713,0-8.533-3.82-8.533-8.533v-25.6C178.2,275.887,182.021,272.067,186.733,272.067z"/>
	</g>
	<g>
		<path d="M494.933,0H17.067C7.645,0.011,0.011,7.645,0,17.067v477.867c0.011,9.421,7.645,17.056,17.067,17.067h477.867
			c9.421-0.011,17.056-7.645,17.067-17.067V17.067C511.989,7.645,504.355,0.011,494.933,0z M494.934,17.067V51.2H17.067V17.067
			H494.934z M17.067,179.2h230.4v264.533h-230.4V179.2z M247.467,162.133h-230.4V68.267h230.4V162.133z M17.067,460.8h230.4v34.133
			h-230.4V460.8z M264.533,494.933V68.267h230.401l0.008,426.667H264.533z"/>
		<path d="M42.667,42.667h51.2c4.713,0,8.533-3.821,8.533-8.533S98.579,25.6,93.867,25.6h-51.2c-4.713,0-8.533,3.821-8.533,8.533
			S37.954,42.667,42.667,42.667z"/>
		<path d="M128,42.667h17.067c4.713,0,8.533-3.821,8.533-8.533s-3.821-8.533-8.533-8.533H128c-4.713,0-8.533,3.821-8.533,8.533
			S123.287,42.667,128,42.667z"/>
		<path d="M179.2,42.667h17.067c4.713,0,8.533-3.821,8.533-8.533s-3.821-8.533-8.533-8.533H179.2c-4.713,0-8.533,3.821-8.533,8.533
			S174.487,42.667,179.2,42.667z"/>
		<path d="M230.4,42.667h17.067c4.713,0,8.533-3.821,8.533-8.533s-3.82-8.533-8.533-8.533H230.4c-4.713,0-8.533,3.821-8.533,8.533
			S225.687,42.667,230.4,42.667z"/>
		<path d="M281.6,42.667h17.067c4.713,0,8.533-3.821,8.533-8.533s-3.82-8.533-8.533-8.533H281.6c-4.713,0-8.533,3.821-8.533,8.533
			S276.887,42.667,281.6,42.667z"/>
		<path d="M469.333,42.667h8.533c4.713,0,8.533-3.821,8.533-8.533s-3.82-8.533-8.533-8.533h-8.533c-4.713,0-8.533,3.821-8.533,8.533
			S464.621,42.667,469.333,42.667z"/>
		<path d="M213.333,196.267H51.2c-9.421,0.011-17.056,7.645-17.067,17.067V230.4c0.011,9.421,7.645,17.056,17.067,17.067h162.133
			c9.421-0.011,17.056-7.645,17.067-17.067v-17.067C230.389,203.912,222.755,196.277,213.333,196.267z M51.2,230.4v-17.067h162.133
			l0.009,17.067H51.2z"/>
		<path d="M76.8,264.533H51.2c-9.421,0.011-17.056,7.645-17.067,17.067v25.6c0.011,9.421,7.645,17.056,17.067,17.067h25.6
			c9.421-0.011,17.056-7.645,17.067-17.067v-25.6C93.856,272.179,86.221,264.544,76.8,264.533z M51.2,307.2v-25.6h25.6l0.009,25.6
			H51.2z"/>
		<path d="M145.067,264.533h-25.6c-9.421,0.011-17.056,7.645-17.067,17.067v25.6c0.011,9.421,7.645,17.056,17.067,17.067h25.6
			c9.421-0.011,17.056-7.645,17.067-17.067v-25.6C162.123,272.179,154.488,264.544,145.067,264.533z M119.467,307.2v-25.6h25.6
			l0.009,25.6H119.467z"/>
		<path d="M213.333,264.533h-25.6c-9.421,0.011-17.056,7.645-17.067,17.067v25.6c0.011,9.421,7.645,17.056,17.067,17.067h25.6
			c9.421-0.011,17.056-7.645,17.067-17.067v-25.6C230.389,272.179,222.755,264.544,213.333,264.533z M187.733,307.2v-25.6h25.6
			l0.009,25.6H187.733z"/>
		<path d="M85.333,341.333H42.667c-4.713,0-8.533,3.821-8.533,8.533c0,4.713,3.821,8.533,8.533,8.533h42.667
			c4.713,0,8.533-3.821,8.533-8.533C93.867,345.154,90.046,341.333,85.333,341.333z"/>
		<path d="M153.6,341.333h-42.667c-4.713,0-8.533,3.821-8.533,8.533c0,4.713,3.821,8.533,8.533,8.533H153.6
			c4.713,0,8.533-3.821,8.533-8.533C162.133,345.154,158.313,341.333,153.6,341.333z"/>
		<path d="M221.867,341.333H179.2c-4.713,0-8.533,3.821-8.533,8.533c0,4.713,3.821,8.533,8.533,8.533h42.667
			c4.713,0,8.533-3.821,8.533-8.533C230.4,345.154,226.579,341.333,221.867,341.333z"/>
		<path d="M85.333,375.467H42.667c-4.713,0-8.533,3.821-8.533,8.533s3.821,8.533,8.533,8.533h42.667c4.713,0,8.533-3.82,8.533-8.533
			S90.046,375.467,85.333,375.467z"/>
		<path d="M153.6,375.467h-42.667c-4.713,0-8.533,3.821-8.533,8.533s3.821,8.533,8.533,8.533H153.6c4.713,0,8.533-3.82,8.533-8.533
			S158.313,375.467,153.6,375.467z"/>
		<path d="M221.867,375.467H179.2c-4.713,0-8.533,3.821-8.533,8.533s3.821,8.533,8.533,8.533h42.667c4.713,0,8.533-3.82,8.533-8.533
			S226.579,375.467,221.867,375.467z"/>
		<path d="M85.333,409.6H42.667c-4.713,0-8.533,3.82-8.533,8.533s3.821,8.533,8.533,8.533h42.667c4.713,0,8.533-3.82,8.533-8.533
			S90.046,409.6,85.333,409.6z"/>
		<path d="M153.6,409.6h-42.667c-4.713,0-8.533,3.82-8.533,8.533s3.821,8.533,8.533,8.533H153.6c4.713,0,8.533-3.82,8.533-8.533
			S158.313,409.6,153.6,409.6z"/>
		<path d="M221.867,409.6H179.2c-4.713,0-8.533,3.82-8.533,8.533s3.821,8.533,8.533,8.533h42.667c4.713,0,8.533-3.82,8.533-8.533
			S226.579,409.6,221.867,409.6z"/>
		<path d="M85.333,469.333H42.667c-4.713,0-8.533,3.821-8.533,8.533s3.821,8.533,8.533,8.533h42.667c4.713,0,8.533-3.82,8.533-8.533
			S90.046,469.333,85.333,469.333z"/>
		<path d="M187.05,474.621c-0.189-0.542-0.446-1.057-0.767-1.533c-0.341-0.429-0.683-0.854-1.025-1.279
			c-3.421-3.158-8.695-3.158-12.117,0c-0.368,0.405-0.71,0.832-1.025,1.279c-0.324,0.474-0.582,0.99-0.767,1.533
			c-0.246,0.485-0.42,1.003-0.517,1.538c-0.093,0.565-0.148,1.136-0.167,1.708c0,4.713,3.821,8.533,8.533,8.533
			s8.533-3.82,8.533-8.533c-0.017-0.573-0.076-1.144-0.175-1.708C187.469,475.623,187.297,475.104,187.05,474.621z"/>
		<path d="M208.042,470.013c-1.557-0.679-3.287-0.857-4.95-0.508c-0.534,0.091-1.051,0.263-1.533,0.508
			c-0.546,0.187-1.064,0.447-1.542,0.771c-0.446,0.315-0.872,0.657-1.275,1.025c-3.3,3.365-3.3,8.752,0,12.117
			c0.403,0.367,0.829,0.708,1.275,1.021c0.477,0.324,0.996,0.583,1.542,0.771c0.483,0.245,1,0.418,1.533,0.512
			c0.565,0.098,1.136,0.155,1.709,0.171c3.45-0.014,6.556-2.096,7.879-5.282c1.323-3.187,0.606-6.856-1.82-9.31
			C210.042,471.037,209.086,470.427,208.042,470.013z"/>
		<path d="M238.758,476.158c-0.09-0.536-0.261-1.054-0.508-1.538c-0.189-0.542-0.446-1.057-0.767-1.533
			c-0.341-0.429-0.683-0.854-1.025-1.279c-3.421-3.158-8.695-3.158-12.117,0c-0.368,0.405-0.71,0.832-1.025,1.279
			c-0.324,0.474-0.582,0.99-0.767,1.533c-0.246,0.485-0.42,1.003-0.517,1.538c-0.093,0.565-0.148,1.136-0.167,1.708
			c0.014,3.45,2.096,6.556,5.282,7.879c3.187,1.323,6.856,0.606,9.31-1.82c0.771-0.816,1.379-1.772,1.792-2.817
			c0.437-1.026,0.669-2.127,0.683-3.242C238.916,477.294,238.858,476.723,238.758,476.158z"/>
		<path d="M79.3,151.1c1.6,1.601,3.77,2.5,6.033,2.5c2.263,0,4.433-0.899,6.033-2.5l19.566-19.566L130.5,151.1
			c3.338,3.296,8.711,3.279,12.029-0.038c3.317-3.317,3.334-8.691,0.038-12.029L131.533,128l22.067-22.067l28.1,28.1
			c3.338,3.296,8.711,3.279,12.029-0.038c3.317-3.317,3.334-8.691,0.038-12.029l-34.133-34.133c-1.6-1.601-3.77-2.5-6.033-2.5
			c-2.263,0-4.433,0.899-6.033,2.5l-28.1,28.1l-2.5-2.5c-1.6-1.601-3.77-2.5-6.033-2.5c-2.263,0-4.433,0.899-6.033,2.5l-25.6,25.6
			c-1.601,1.6-2.5,3.77-2.5,6.033C76.8,147.33,77.7,149.5,79.3,151.1z"/>
		<path d="M79.275,91.392c0.425,0.341,0.85,0.683,1.275,1.021c0.477,0.324,0.996,0.583,1.542,0.771c0.483,0.245,1,0.418,1.534,0.512
			c0.565,0.098,1.136,0.155,1.708,0.171c0.542-0.016,1.083-0.073,1.617-0.171c0.566-0.082,1.115-0.255,1.625-0.513
			c0.524-0.171,1.015-0.432,1.45-0.771c0.46-0.297,0.89-0.639,1.283-1.021c0.823-0.791,1.463-1.752,1.875-2.817
			c0.911-2.067,0.911-4.421,0-6.487c-0.411-1.064-1.051-2.025-1.875-2.813c-0.394-0.382-0.824-0.725-1.283-1.025
			c-0.435-0.339-0.926-0.6-1.45-0.771c-0.51-0.258-1.059-0.43-1.625-0.508c-1.093-0.258-2.232-0.258-3.325,0
			c-0.534,0.091-1.051,0.263-1.533,0.508c-0.546,0.187-1.064,0.447-1.542,0.771l-1.275,1.025c-0.753,0.829-1.359,1.78-1.792,2.813
			c-0.911,2.067-0.911,4.421,0,6.487C77.895,89.619,78.504,90.575,79.275,91.392z"/>
		<path d="M288.508,85.504c-0.563,0.079-1.11,0.25-1.617,0.508c-0.546,0.187-1.064,0.447-1.542,0.771l-1.275,1.025
			c-0.772,0.814-1.38,1.769-1.792,2.813c-0.438,1.027-0.67,2.13-0.683,3.246c0.03,2.26,0.914,4.424,2.475,6.059
			c0.425,0.341,0.85,0.683,1.275,1.021c0.477,0.324,0.996,0.583,1.542,0.771c0.507,0.257,1.053,0.431,1.617,0.513
			c0.537,0.098,1.08,0.155,1.625,0.171c3.45-0.014,6.556-2.096,7.879-5.282c1.323-3.187,0.606-6.856-1.82-9.31
			C294.147,85.855,291.291,84.998,288.508,85.504z"/>
		<path d="M288.508,119.637c-0.563,0.079-1.11,0.25-1.617,0.508c-0.546,0.187-1.064,0.447-1.542,0.771l-1.275,1.025
			c-0.753,0.829-1.359,1.78-1.792,2.813c-0.438,1.027-0.67,2.13-0.683,3.246c0.014,2.263,0.9,4.433,2.475,6.059
			c0.425,0.341,0.85,0.683,1.275,1.021c0.477,0.324,0.996,0.583,1.542,0.771c0.507,0.257,1.053,0.431,1.617,0.513
			c0.537,0.098,1.08,0.155,1.625,0.171c3.45-0.014,6.556-2.096,7.879-5.282c1.323-3.187,0.606-6.856-1.82-9.31
			C294.147,119.988,291.291,119.132,288.508,119.637z"/>
		<path d="M288.508,153.771c-0.563,0.079-1.11,0.25-1.617,0.508c-0.546,0.187-1.064,0.447-1.542,0.771
			c-0.446,0.315-0.872,0.657-1.275,1.025c-1.561,1.634-2.445,3.799-2.475,6.059c0.014,1.115,0.246,2.216,0.683,3.242
			c0.413,1.044,1.021,2,1.792,2.817c0.403,0.367,0.829,0.708,1.275,1.021c0.477,0.324,0.996,0.583,1.542,0.771
			c0.508,0.257,1.054,0.431,1.617,0.513c0.536,0.098,1.08,0.155,1.625,0.171c3.45-0.014,6.556-2.096,7.879-5.282
			c1.323-3.187,0.606-6.856-1.82-9.31C294.153,154.111,291.291,153.253,288.508,153.771z"/>
		<path d="M288.508,187.904c-0.563,0.079-1.11,0.25-1.617,0.508c-0.546,0.187-1.064,0.447-1.542,0.771l-1.275,1.025
			c-1.574,1.625-2.461,3.796-2.475,6.059c0.03,2.26,0.914,4.424,2.475,6.059c0.425,0.341,0.85,0.683,1.275,1.021
			c0.477,0.324,0.996,0.583,1.542,0.771c0.507,0.257,1.053,0.431,1.617,0.513c0.537,0.098,1.08,0.155,1.625,0.171
			c3.45-0.014,6.556-2.096,7.879-5.282c1.323-3.187,0.606-6.856-1.82-9.31C294.147,188.255,291.291,187.398,288.508,187.904z"/>
		<path d="M288.508,222.037c-0.563,0.079-1.11,0.25-1.617,0.508c-0.546,0.187-1.064,0.447-1.542,0.771l-1.275,1.025
			c-3.3,3.365-3.3,8.752,0,12.117c0.425,0.341,0.85,0.683,1.275,1.021c0.477,0.324,0.996,0.583,1.542,0.771
			c0.507,0.257,1.053,0.431,1.617,0.513c0.537,0.098,1.08,0.155,1.625,0.171c3.45-0.014,6.556-2.096,7.879-5.282
			c1.323-3.187,0.606-6.856-1.82-9.31C294.169,222.351,291.293,221.488,288.508,222.037z"/>
		<path d="M288.508,256.171c-0.563,0.079-1.11,0.25-1.617,0.508c-0.546,0.187-1.064,0.447-1.542,0.771
			c-0.446,0.315-0.872,0.657-1.275,1.025c-3.3,3.365-3.3,8.752,0,12.117c0.403,0.367,0.829,0.708,1.275,1.021
			c0.477,0.324,0.996,0.583,1.542,0.771c0.507,0.257,1.053,0.431,1.617,0.513c0.537,0.098,1.08,0.155,1.625,0.171
			c3.45-0.014,6.556-2.096,7.879-5.282c1.323-3.187,0.606-6.856-1.82-9.31C294.153,256.511,291.291,255.653,288.508,256.171z"/>
		<path d="M288.508,290.304c-0.563,0.079-1.11,0.25-1.617,0.508c-0.546,0.187-1.064,0.447-1.542,0.771l-1.275,1.025
			c-1.574,1.625-2.461,3.796-2.475,6.059c0.014,1.115,0.246,2.216,0.683,3.242c0.433,1.034,1.039,1.987,1.792,2.817
			c0.425,0.341,0.85,0.683,1.275,1.021c0.477,0.324,0.996,0.583,1.542,0.771c0.508,0.257,1.054,0.431,1.617,0.512
			c0.536,0.098,1.08,0.155,1.625,0.171c3.45-0.014,6.556-2.096,7.879-5.282c1.323-3.187,0.606-6.856-1.82-9.31
			C294.147,290.655,291.291,289.798,288.508,290.304z"/>
		<path d="M288.508,324.437c-0.563,0.079-1.11,0.25-1.617,0.508c-0.546,0.187-1.064,0.447-1.542,0.771l-1.275,1.025
			c-1.561,1.634-2.445,3.799-2.475,6.059c0.014,2.263,0.9,4.433,2.475,6.059c0.425,0.341,0.85,0.683,1.275,1.021
			c0.477,0.324,0.996,0.583,1.542,0.771c0.507,0.257,1.053,0.431,1.617,0.513c0.537,0.098,1.08,0.155,1.625,0.171
			c3.45-0.014,6.556-2.096,7.879-5.282c1.323-3.187,0.606-6.856-1.82-9.31C294.147,324.788,291.291,323.932,288.508,324.437z"/>
		<path d="M288.508,358.571c-0.563,0.079-1.11,0.25-1.617,0.508c-0.546,0.187-1.064,0.447-1.542,0.771
			c-0.446,0.315-0.872,0.657-1.275,1.025c-0.772,0.814-1.38,1.769-1.792,2.813c-0.438,1.027-0.67,2.13-0.683,3.246
			c0.03,2.26,0.914,4.424,2.475,6.059c0.403,0.367,0.829,0.708,1.275,1.021c0.477,0.324,0.996,0.583,1.542,0.771
			c0.507,0.257,1.053,0.431,1.617,0.512c0.537,0.098,1.08,0.155,1.625,0.171c3.45-0.014,6.556-2.096,7.879-5.282
			c1.323-3.187,0.606-6.856-1.82-9.31C294.153,358.911,291.291,358.053,288.508,358.571z"/>
		<path d="M294.825,393.983c-0.435-0.339-0.926-0.6-1.45-0.771c-0.51-0.258-1.059-0.43-1.625-0.508
			c-1.065-0.258-2.177-0.258-3.242,0c-0.563,0.079-1.11,0.25-1.617,0.508c-0.546,0.187-1.064,0.447-1.542,0.771
			c-0.446,0.315-0.872,0.657-1.275,1.025c-1.561,1.634-2.445,3.799-2.475,6.059c0.014,1.115,0.246,2.216,0.683,3.242
			c0.433,1.034,1.039,1.987,1.792,2.817c0.425,0.341,0.85,0.683,1.275,1.021c0.477,0.324,0.996,0.583,1.542,0.771
			c0.508,0.257,1.054,0.431,1.617,0.513c0.536,0.098,1.08,0.155,1.625,0.171c3.45-0.014,6.556-2.096,7.879-5.282
			c1.323-3.187,0.606-6.856-1.82-9.31C295.774,394.619,295.315,394.276,294.825,393.983z"/>
		<path d="M288.508,426.837c-0.563,0.079-1.11,0.25-1.617,0.508c-0.546,0.187-1.064,0.447-1.542,0.771l-1.275,1.025
			c-1.561,1.634-2.445,3.799-2.475,6.059c0.014,0.571,0.07,1.141,0.167,1.704c0.096,0.535,0.27,1.053,0.517,1.538
			c0.184,0.545,0.442,1.062,0.767,1.538c0.341,0.425,0.683,0.85,1.025,1.279c0.425,0.341,0.85,0.683,1.275,1.021
			c0.477,0.324,0.996,0.583,1.542,0.771c0.508,0.257,1.054,0.431,1.617,0.513c0.537,0.098,1.08,0.155,1.625,0.171
			c2.259-0.035,4.421-0.918,6.059-2.475c0.341-0.429,0.683-0.854,1.025-1.279c0.321-0.477,0.579-0.994,0.767-1.538
			c0.247-0.483,0.419-1.002,0.508-1.538c0.104-0.563,0.162-1.133,0.175-1.704c-0.033-2.259-0.917-4.422-2.475-6.059
			C294.147,427.188,291.291,426.332,288.508,426.837z"/>
		<path d="M288.508,460.971c-0.563,0.079-1.11,0.25-1.617,0.508c-0.546,0.187-1.064,0.447-1.542,0.771
			c-0.446,0.315-0.872,0.657-1.275,1.025c-3.3,3.365-3.3,8.752,0,12.117c0.425,0.341,0.85,0.683,1.275,1.021
			c0.477,0.324,0.996,0.583,1.542,0.771c0.507,0.257,1.053,0.431,1.617,0.512c0.537,0.098,1.08,0.155,1.625,0.171
			c0.542-0.016,1.083-0.073,1.617-0.171c0.566-0.082,1.115-0.255,1.625-0.512c0.524-0.171,1.015-0.432,1.45-0.771
			c0.508-0.337,0.942-0.679,1.367-1.021c3.3-3.365,3.3-8.752,0-12.117C294.175,461.274,291.294,460.41,288.508,460.971z"/>
		<path d="M324.267,102.4h42.667c4.713,0,8.533-3.821,8.533-8.533c0-4.713-3.82-8.533-8.533-8.533h-42.667
			c-4.713,0-8.533,3.821-8.533,8.533C315.733,98.579,319.554,102.4,324.267,102.4z"/>
		<path d="M401.067,102.4H435.2c4.713,0,8.533-3.821,8.533-8.533c0-4.713-3.821-8.533-8.533-8.533h-34.133
			c-4.713,0-8.533,3.821-8.533,8.533C392.533,98.579,396.354,102.4,401.067,102.4z"/>
		<path d="M349.867,136.533h8.533c4.713,0,8.533-3.821,8.533-8.533c0-4.713-3.82-8.533-8.533-8.533h-8.533
			c-4.713,0-8.533,3.821-8.533,8.533C341.333,132.713,345.154,136.533,349.867,136.533z"/>
		<path d="M392.533,136.533H409.6c4.713,0,8.533-3.821,8.533-8.533c0-4.713-3.821-8.533-8.533-8.533h-17.067
			c-4.713,0-8.533,3.821-8.533,8.533C384,132.713,387.821,136.533,392.533,136.533z"/>
		<path d="M426.667,128c-0.001,2.263,0.898,4.434,2.499,6.035c1.6,1.6,3.771,2.499,6.035,2.499h25.6
			c4.713,0,8.533-3.821,8.533-8.533s-3.82-8.533-8.533-8.533h-25.6c-2.263-0.001-4.434,0.898-6.035,2.499
			C427.565,123.566,426.666,125.737,426.667,128z"/>
		<path d="M349.867,153.6c-4.713,0-8.533,3.821-8.533,8.533c0,4.713,3.821,8.533,8.533,8.533h25.6c4.713,0,8.533-3.821,8.533-8.533
			c0-4.713-3.821-8.533-8.533-8.533H349.867z"/>
		<path d="M406.358,169.983c0.483,0.245,1,0.418,1.533,0.513c0.565,0.098,1.135,0.155,1.708,0.171
			c0.542-0.016,1.083-0.073,1.617-0.171c0.566-0.082,1.115-0.255,1.625-0.512c0.543-0.188,1.059-0.447,1.533-0.771
			c0.425-0.338,0.858-0.679,1.283-1.021c3.3-3.365,3.3-8.752,0-12.117c-0.425-0.341-0.858-0.683-1.283-1.025
			c-0.475-0.324-0.99-0.583-1.533-0.771c-0.51-0.258-1.059-0.43-1.625-0.508c-1.093-0.258-2.232-0.258-3.325,0
			c-0.534,0.091-1.051,0.263-1.533,0.508c-0.546,0.187-1.064,0.447-1.542,0.771l-1.275,1.025c-0.772,0.814-1.38,1.769-1.792,2.813
			c-0.481,1.013-0.715,2.125-0.683,3.246c0.03,2.26,0.914,4.424,2.475,6.059c0.425,0.341,0.85,0.683,1.275,1.021
			C405.294,169.537,405.812,169.796,406.358,169.983z"/>
		<path d="M460.8,153.6h-17.067c-4.713,0-8.533,3.821-8.533,8.533c0,4.713,3.821,8.533,8.533,8.533H460.8
			c4.713,0,8.533-3.821,8.533-8.533C469.333,157.421,465.513,153.6,460.8,153.6z"/>
		<path d="M324.267,204.8h42.667c4.713,0,8.533-3.821,8.533-8.533s-3.82-8.533-8.533-8.533h-42.667
			c-4.713,0-8.533,3.821-8.533,8.533S319.554,204.8,324.267,204.8z"/>
		<path d="M443.733,196.267c0.001-2.263-0.898-4.434-2.499-6.035c-1.6-1.6-3.771-2.499-6.035-2.499h-34.133
			c-4.713,0-8.533,3.821-8.533,8.533s3.82,8.533,8.533,8.533H435.2c2.263,0.001,4.434-0.898,6.035-2.499
			C442.835,200.701,443.734,198.53,443.733,196.267z"/>
		<path d="M349.867,238.933h8.533c4.713,0,8.533-3.821,8.533-8.533s-3.82-8.533-8.533-8.533h-8.533c-4.713,0-8.533,3.82-8.533,8.533
			S345.154,238.933,349.867,238.933z"/>
		<path d="M409.6,221.867h-17.067c-4.713,0-8.533,3.82-8.533,8.533s3.82,8.533,8.533,8.533H409.6c4.713,0,8.533-3.821,8.533-8.533
			S414.313,221.867,409.6,221.867z"/>
		<path d="M460.8,221.867h-25.6c-4.713,0-8.533,3.82-8.533,8.533s3.82,8.533,8.533,8.533h25.6c4.713,0,8.533-3.821,8.533-8.533
			S465.513,221.867,460.8,221.867z"/>
		<path d="M375.467,256h-25.6c-4.713,0-8.533,3.821-8.533,8.533s3.821,8.533,8.533,8.533h25.6c4.713,0,8.533-3.82,8.533-8.533
			S380.18,256,375.467,256z"/>
		<path d="M415.659,270.592c2.953-2.896,3.444-7.476,1.171-10.932c-2.272-3.455-6.672-4.82-10.501-3.256
			c-3.829,1.564-6.015,5.618-5.219,9.677c0.797,4.058,4.354,6.985,8.49,6.986C411.859,273.032,414.022,272.149,415.659,270.592z"/>
		<path d="M460.8,256h-17.067c-4.713,0-8.533,3.821-8.533,8.533s3.821,8.533,8.533,8.533H460.8c4.713,0,8.533-3.82,8.533-8.533
			S465.513,256,460.8,256z"/>
		<path d="M324.267,307.2h42.667c4.713,0,8.533-3.82,8.533-8.533s-3.82-8.533-8.533-8.533h-42.667c-4.713,0-8.533,3.82-8.533,8.533
			S319.554,307.2,324.267,307.2z"/>
		<path d="M443.733,298.667c0.001-2.263-0.898-4.434-2.499-6.035c-1.6-1.6-3.771-2.499-6.035-2.499h-34.133
			c-4.713,0-8.533,3.82-8.533,8.533s3.82,8.533,8.533,8.533H435.2c2.263,0.001,4.434-0.898,6.035-2.499
			C442.835,303.101,443.734,300.93,443.733,298.667z"/>
		<path d="M349.867,341.333h8.533c4.713,0,8.533-3.82,8.533-8.533s-3.82-8.533-8.533-8.533h-8.533c-4.713,0-8.533,3.82-8.533,8.533
			S345.154,341.333,349.867,341.333z"/>
		<path d="M409.6,324.267h-17.067c-4.713,0-8.533,3.82-8.533,8.533s3.82,8.533,8.533,8.533H409.6c4.713,0,8.533-3.82,8.533-8.533
			S414.313,324.267,409.6,324.267z"/>
		<path d="M460.8,324.267h-25.6c-4.713,0-8.533,3.82-8.533,8.533s3.82,8.533,8.533,8.533h25.6c4.713,0,8.533-3.82,8.533-8.533
			S465.513,324.267,460.8,324.267z"/>
		<path d="M349.867,375.467h25.6c4.713,0,8.533-3.82,8.533-8.533s-3.821-8.533-8.533-8.533h-25.6c-4.713,0-8.533,3.82-8.533,8.533
			S345.154,375.467,349.867,375.467z"/>
		<path d="M415.659,372.992c1.557-1.637,2.44-3.8,2.475-6.059c-0.013-1.116-0.245-2.219-0.683-3.246
			c-0.433-1.033-1.039-1.984-1.792-2.813c-3.421-3.158-8.695-3.158-12.117,0c-0.753,0.829-1.359,1.78-1.792,2.813
			c-0.481,1.013-0.714,2.125-0.683,3.246c-0.022,2.27,0.87,4.453,2.475,6.058c1.605,1.605,3.788,2.497,6.058,2.475
			C411.859,375.432,414.021,374.548,415.659,372.992z"/>
		<path d="M460.8,358.4h-17.067c-4.713,0-8.533,3.82-8.533,8.533s3.821,8.533,8.533,8.533H460.8c4.713,0,8.533-3.82,8.533-8.533
			S465.513,358.4,460.8,358.4z"/>
		<path d="M375.467,401.067c0.001-2.263-0.898-4.434-2.499-6.035c-1.6-1.6-3.771-2.499-6.035-2.499h-42.667
			c-4.713,0-8.533,3.82-8.533,8.533s3.821,8.533,8.533,8.533h42.667c2.263,0.001,4.434-0.898,6.035-2.499
			C374.568,405.501,375.467,403.33,375.467,401.067z"/>
		<path d="M392.533,401.067c-0.001,2.263,0.898,4.434,2.499,6.035c1.6,1.6,3.771,2.499,6.035,2.499H435.2
			c4.713,0,8.533-3.821,8.533-8.533s-3.821-8.533-8.533-8.533h-34.133c-2.263-0.001-4.434,0.898-6.035,2.499
			C393.432,396.633,392.533,398.803,392.533,401.067z"/>
		<path d="M349.867,426.667c-4.713,0-8.533,3.82-8.533,8.533s3.821,8.533,8.533,8.533h8.533c4.713,0,8.533-3.821,8.533-8.533
			s-3.82-8.533-8.533-8.533H349.867z"/>
		<path d="M409.6,426.667h-17.067c-4.713,0-8.533,3.82-8.533,8.533s3.82,8.533,8.533,8.533H409.6c4.713,0,8.533-3.821,8.533-8.533
			S414.313,426.667,409.6,426.667z"/>
		<path d="M460.8,426.667h-25.6c-4.713,0-8.533,3.82-8.533,8.533s3.82,8.533,8.533,8.533h25.6c4.713,0,8.533-3.821,8.533-8.533
			S465.513,426.667,460.8,426.667z"/>
		<path d="M375.467,460.8h-25.6c-4.713,0-8.533,3.821-8.533,8.533c0,4.713,3.821,8.533,8.533,8.533h25.6
			c4.713,0,8.533-3.821,8.533-8.533C384,464.621,380.18,460.8,375.467,460.8z"/>
		<path d="M403.541,463.275c-1.561,1.634-2.445,3.799-2.475,6.059c-0.031,1.119,0.203,2.23,0.683,3.242
			c0.433,1.034,1.039,1.987,1.792,2.817c3.365,3.3,8.752,3.3,12.117,0c0.753-0.83,1.359-1.783,1.792-2.817
			c0.437-1.026,0.669-2.127,0.683-3.242c0.02-3.467-2.059-6.601-5.261-7.931C409.671,460.073,405.983,460.813,403.541,463.275z"/>
		<path d="M460.8,460.8h-17.067c-4.713,0-8.533,3.821-8.533,8.533c0,4.713,3.821,8.533,8.533,8.533H460.8
			c4.713,0,8.533-3.821,8.533-8.533C469.333,464.621,465.513,460.8,460.8,460.8z"/>
	</g>
</g>
<g>
</g>
<g>
</g>
<g>
</g>
<g>
</g>
<g>
</g>
<g>
</g>
<g>
</g>
<g>
</g>
<g>
</g>
<g>
</g>
<g>
</g>
<g>
</g>
<g>
</g>
<g>
</g>
<g>
</g>
</svg>
